<mxfile host="app.diagrams.net" modified="2023-12-26T00:55:05.043Z" agent="Mozilla/5.0 (Macintosh; Intel Mac OS X 10_15_7) AppleWebKit/537.36 (KHTML, like Gecko) Chrome/120.0.0.0 Safari/537.36" etag="yOr4Bd5XlBLv8k5kNEKk" version="22.1.11" type="github">
  <diagram id="9fnjXT7nlAm7Ix4f8WDv" name="Page-1">
    <mxGraphModel dx="1168" dy="1524" grid="0" gridSize="10" guides="1" tooltips="1" connect="1" arrows="1" fold="1" page="1" pageScale="1" pageWidth="500" pageHeight="300" background="#EFF1F3" math="0" shadow="0">
      <root>
        <mxCell id="0" />
        <mxCell id="1" parent="0" />
        <mxCell id="-xf_uFu9KCXf6jcXoVjT-15" value="&lt;font style=&quot;font-size: 23px;&quot;&gt;Value&lt;/font&gt;" style="rounded=1;whiteSpace=wrap;html=1;fontSize=23;fillColor=#FDD276;" parent="1" vertex="1">
          <mxGeometry x="633" y="88" width="317" height="60" as="geometry" />
        </mxCell>
        <mxCell id="QUlrv-4_Xu6kGZL0T_s7-1" value="Tag" style="rounded=1;whiteSpace=wrap;html=1;fontSize=23;fillColor=#4A909B;" parent="1" vertex="1">
          <mxGeometry x="120" y="88" width="256" height="60" as="geometry" />
        </mxCell>
        <mxCell id="QUlrv-4_Xu6kGZL0T_s7-28" value="Length" style="rounded=1;whiteSpace=wrap;html=1;fontSize=23;fillColor=#6DB5A8;" parent="1" vertex="1">
          <mxGeometry x="376" y="88" width="257" height="60" as="geometry" />
        </mxCell>
        <mxCell id="qseKr2snYDWhebuNy2Sw-1" value="&lt;font style=&quot;font-size: 39px;&quot;&gt;TLV编码&lt;/font&gt;" style="text;html=1;strokeColor=none;fillColor=none;align=center;verticalAlign=middle;whiteSpace=wrap;rounded=0;" vertex="1" parent="1">
          <mxGeometry x="396" y="209" width="217" height="30" as="geometry" />
        </mxCell>
      </root>
    </mxGraphModel>
  </diagram>
</mxfile>
